<svg width="548" height="115" viewBox="0 0 548 115" fill="none" xmlns="http://www.w3.org/2000/svg">
<mask id="mask0_1812_5229" style="mask-type:luminance" maskUnits="userSpaceOnUse" x="0" y="0" width="548" height="115">
<path d="M547.027 0H0V114.81H547.027V0Z" fill="white"/>
</mask>
<g mask="url(#mask0_1812_5229)">
<mask id="mask1_1812_5229" style="mask-type:luminance" maskUnits="userSpaceOnUse" x="3" y="3" width="545" height="112">
<path d="M547.027 3.47913H3.41895V114.81H547.027V3.47913Z" fill="white"/>
</mask>
<g mask="url(#mask1_1812_5229)">
<path d="M55.4651 47.2396C55.4651 53.4484 54.6733 58.8728 53.0593 63.5141C51.4452 68.1255 49.1917 71.9832 46.2376 75.0271C43.2835 78.0709 39.7203 80.3612 35.4874 81.8684C31.2541 83.3751 26.5032 84.1587 21.2651 84.1587C18.8592 84.1587 16.0575 84.0384 12.8597 83.7975C9.66204 83.5561 6.52528 83.0439 3.41895 82.2903V12.3094C6.49482 11.6162 9.72301 11.1642 13.073 10.9231C16.4229 10.682 19.2856 10.5614 21.6915 10.5614C26.7773 10.5614 31.4064 11.2546 35.5482 12.641C39.6899 14.0273 43.2532 16.1973 46.2069 19.181C49.1614 22.1646 51.4755 25.962 53.0593 30.5732C54.643 35.1844 55.4651 40.73 55.4651 47.2396ZM16.7883 70.0238C17.4279 70.0845 18.1588 70.1448 18.9811 70.1748C19.8033 70.2048 20.8083 70.2351 21.9351 70.2351C28.635 70.2351 33.5687 68.1858 36.7968 64.1171C40.0249 60.0483 41.6392 54.4125 41.6392 47.2396C41.6392 39.7052 40.0858 34.0089 37.0098 30.1512C33.9341 26.2936 29.031 24.3346 22.3615 24.3346C21.4478 24.3346 20.5038 24.3647 19.5292 24.3948C18.5547 24.425 17.6411 24.5154 16.7883 24.6661V70.0238Z" fill="black"/>
<path d="M96.8525 23.8831C105.775 23.8831 112.597 25.4503 117.348 28.5846C122.099 31.719 124.474 36.6014 124.474 43.2319C124.474 47.3606 123.53 50.7057 121.612 53.2977C119.693 55.8896 116.952 57.879 113.328 59.3554C114.516 60.8326 115.795 62.5203 117.105 64.3887C118.414 66.2878 119.724 68.2768 121.003 70.3262C122.282 72.3755 123.53 74.5451 124.718 76.7759C125.906 79.0058 127.033 81.2058 128.068 83.3455H113.115C112.019 81.4168 110.922 79.4582 109.795 77.4991C108.668 75.5097 107.542 73.611 106.354 71.7426C105.167 69.8739 104.009 68.1262 102.882 66.4384C101.725 64.7807 100.598 63.2436 99.4409 61.8874H92.8326V83.3455H79.4631V25.4201C82.3865 24.8475 85.4016 24.4557 88.5081 24.2447C91.6145 24.0036 94.3856 23.8831 96.8525 23.8831ZM97.614 35.185C96.6395 35.185 95.7863 35.2149 94.9944 35.2751C94.2337 35.3357 93.5024 35.3959 92.8019 35.4561V51.3994H96.6088C101.634 51.3994 105.228 50.7665 107.42 49.5306C109.582 48.2948 110.678 46.1551 110.678 43.1716C110.678 40.2784 109.582 38.2289 107.389 37.0234C105.167 35.7876 101.908 35.185 97.614 35.185Z" fill="black"/>
<path d="M191.991 83.3443C191.321 81.054 190.621 78.703 189.859 76.322C189.098 73.911 188.337 71.5305 187.575 69.1191H164.369C163.608 71.5305 162.877 73.911 162.116 76.322C161.354 78.7334 160.653 81.084 160.014 83.3443H146.127C148.35 76.2617 150.482 69.722 152.492 63.6943C154.502 57.6665 156.451 52.0307 158.37 46.7265C160.288 41.4219 162.176 36.3589 164.034 31.597C165.892 26.8352 167.841 22.1638 169.851 17.6129H182.52C184.469 22.1638 186.388 26.8352 188.276 31.597C190.164 36.3589 192.082 41.4219 194.001 46.7265C195.92 52.0307 197.899 57.6969 199.909 63.6943C201.919 69.6917 204.051 76.2317 206.274 83.3443H191.991ZM175.942 37.896C175.637 38.74 175.211 39.9152 174.632 41.392C174.054 42.8687 173.414 44.5565 172.683 46.4856C171.952 48.4143 171.13 50.5239 170.216 52.8446C169.303 55.1652 168.389 57.5762 167.445 60.1382H184.438C183.525 57.5762 182.642 55.1652 181.789 52.8446C180.936 50.5239 180.114 48.3839 179.353 46.4856C178.591 44.5865 177.921 42.8687 177.343 41.392C176.764 39.855 176.276 38.7097 175.942 37.896Z" fill="black"/>
<path d="M261.823 83.3451C260.605 80.7532 259.204 77.9502 257.559 74.9064C255.915 71.8925 254.179 68.8486 252.291 65.7744C250.403 62.7006 248.423 59.777 246.353 56.9441C244.282 54.1412 242.241 51.6399 240.17 49.4999V83.3451H226.801V3.47875H240.17V33.4964C243.611 28.6442 247.114 23.5508 250.646 18.2465C254.179 12.9422 257.468 8.02959 260.483 3.44861H276.35C272.299 9.92831 268.249 16.1368 264.137 22.1343C260.057 28.1017 255.732 34.1293 251.225 40.187C255.976 45.5215 260.574 51.8505 264.99 59.1441C269.406 66.4677 273.639 74.5148 277.72 83.3451H261.823Z" fill="black"/>
<path d="M333.299 83.3455C332.081 80.9642 330.68 78.4026 329.035 75.66C327.39 72.9174 325.655 70.1448 323.766 67.3419C321.879 64.539 319.899 61.8567 317.828 59.2948C315.757 56.7332 313.716 54.4729 311.646 52.5138V83.3455H298.276V10.5614H311.646V37.927C315.087 33.4966 318.589 28.8854 322.122 24.0332C325.655 19.2111 328.944 14.7205 331.959 10.5614H347.827C343.776 16.4685 339.725 22.1345 335.613 27.5895C331.533 33.0445 327.208 38.5296 322.701 44.0451C327.452 48.8974 332.05 54.6539 336.466 61.3445C340.882 68.0048 345.116 75.3583 349.195 83.4055H333.299V83.3455Z" fill="black"/>
<path d="M411.777 83.3455C411.107 81.2958 410.412 79.2165 409.648 77.0464C408.885 74.9064 408.125 72.7368 407.366 70.6267H384.156C383.398 72.7667 382.666 74.9064 381.903 77.0768C381.141 79.2165 380.444 81.3261 379.801 83.3455H365.917C368.139 77.0161 370.269 71.1697 372.279 65.7744C374.289 60.4103 376.238 55.3471 378.157 50.5851C380.078 45.8231 381.965 41.3325 383.822 37.053C385.682 32.7734 387.63 28.6143 389.641 24.5457H402.308C404.255 28.6143 406.174 32.7734 408.064 37.053C409.951 41.3325 411.87 45.8231 413.789 50.5851C415.708 55.3471 417.688 60.3799 419.696 65.7744C421.708 71.1697 423.841 76.9861 426.063 83.3455H411.777ZM395.699 37.8971C395.394 38.7407 394.967 39.9163 394.39 41.3928C393.811 42.8696 393.172 44.5573 392.441 46.4864C391.709 48.4151 390.888 50.5248 389.975 52.8454C389.06 55.1661 388.146 57.577 387.203 60.139H404.194C403.282 57.577 402.4 55.1661 401.545 52.8454C400.694 50.5248 399.873 48.3851 399.111 46.4864C398.348 44.5573 397.678 42.8696 397.101 41.3928C396.523 39.8558 396.065 38.7105 395.699 37.8971Z" fill="black"/>
<path d="M463.979 10.5614C472.9 10.5614 479.723 12.4903 484.474 16.3178C489.222 20.1755 491.601 26.1429 491.601 34.25C491.601 39.3134 490.656 43.4122 488.737 46.5464C486.822 49.7109 484.078 52.1822 480.455 53.9602C481.638 55.7686 482.923 57.8184 484.232 60.139C485.541 62.4593 486.85 64.8702 488.131 67.4022C489.407 69.9339 490.656 72.5558 491.844 75.2984C493.031 78.041 494.158 80.7232 495.193 83.3455H480.24C479.146 80.9945 478.047 78.6135 476.923 76.1722C475.792 73.7613 474.669 71.4102 473.477 69.12C472.294 66.8293 471.134 64.6597 470.011 62.6403C468.851 60.5909 467.724 58.7525 466.565 57.0948H459.959V83.3455H446.591V12.43C449.512 11.7368 452.529 11.2546 455.632 10.9833C458.739 10.682 461.515 10.5614 463.979 10.5614ZM464.771 24.3647C463.797 24.3647 462.941 24.3948 462.153 24.4551C461.389 24.5154 460.658 24.6058 459.959 24.6661V44.1957H463.737C468.763 44.1957 472.354 43.4422 474.544 41.9051C476.705 40.3982 477.804 37.7764 477.804 34.1295C477.804 30.6033 476.705 28.1019 474.516 26.5949C472.294 25.1182 469.033 24.3647 464.771 24.3647Z" fill="black"/>
<path d="M547.027 114.809H166.928V104.201H529.699L512.125 69.4816L521.72 64.7196L547.027 114.809Z" fill="black"/>
</g>
</g>
</svg>
