<svg width="48" height="48" viewBox="0 0 48 48" fill="none" xmlns="http://www.w3.org/2000/svg">
  <rect width="48" height="48" rx="8" fill="#B22222"/>
  <path d="M24 13c-3 0-5.5 1-7 2.5-1.5 1.5-2 3.5-2 5.5 0 2 .5 3.5 1.5 4.5s2.5 1.5 4.5 1.5h2c1.5 0 2.5.5 3 1s.5 1.5.5 2.5c0 1-.5 2-1.5 2.5-1 .5-2 .5-3.5.5-1.5 0-3-.5-4.5-1l-1.5 3.5c2 1 4 1.5 6.5 1.5 3 0 5.5-1 7-2.5s2-3.5 2-5.5c0-2-.5-3.5-1.5-4.5s-2.5-1.5-4.5-1.5h-2c-1.5 0-2.5-.5-3-1s-.5-1.5-.5-2.5c0-1 .5-2 1.5-2.5 1-.5 2-.5 3.5-.5 1.5 0 3 .5 4 1l1.5-3.5c-2-1-4-1.5-6-1.5z" fill="white"/>
</svg>
